<svg width="1920" height="1920" viewBox="0 0 1920 1920" fill="none" xmlns="http://www.w3.org/2000/svg">
<g clip-path="url(#clip0_864_57593)">
<g filter="url(#filter0_ii_864_57593)">
<path d="M231.999 -183C231.999 -183 37.812 67.5005 20.0001 225C2.1881 382.5 99.0012 453 99.0012 613C99.0012 773 -0.777336 892.875 23.9994 1036C48.7761 1179.12 132.187 1192.5 189.999 1320C247.811 1447.5 144.437 1641.06 270.999 1737C397.562 1832.94 549.999 1752.38 709.999 1773C869.999 1793.62 922.749 1903 1064 1903C1205.25 1903 1252.31 1818 1477 1818C1701.69 1818 1998.44 2028.62 2110 1568V-183H231.999Z" fill="black" fill-opacity="0.01"/>
</g>
<path d="M231.999 -183C231.999 -183 37.812 67.5005 20.0001 225C2.1881 382.5 99.0012 453 99.0012 613C99.0012 773 -0.777336 892.875 23.9994 1036C48.7761 1179.12 132.187 1192.5 189.999 1320C247.811 1447.5 144.437 1641.06 270.999 1737C397.562 1832.94 549.999 1752.38 709.999 1773C869.999 1793.62 922.749 1903 1064 1903C1205.25 1903 1252.31 1818 1477 1818C1701.69 1818 1998.44 2028.62 2110 1568V-183H231.999Z" stroke="#F0EEFF" stroke-width="20"/>
</g>
<defs>
<filter id="filter0_ii_864_57593" x="7.81445" y="-193" width="2112.19" height="2106" filterUnits="userSpaceOnUse" color-interpolation-filters="sRGB">
<feFlood flood-opacity="0" result="BackgroundImageFix"/>
<feBlend mode="normal" in="SourceGraphic" in2="BackgroundImageFix" result="shape"/>
<feColorMatrix in="SourceAlpha" type="matrix" values="0 0 0 0 0 0 0 0 0 0 0 0 0 0 0 0 0 0 127 0" result="hardAlpha"/>
<feOffset/>
<feGaussianBlur stdDeviation="125"/>
<feComposite in2="hardAlpha" operator="arithmetic" k2="-1" k3="1"/>
<feColorMatrix type="matrix" values="0 0 0 0 0 0 0 0 0 0 0 0 0 0 0 0 0 0 1 0"/>
<feBlend mode="normal" in2="shape" result="effect1_innerShadow_864_57593"/>
<feColorMatrix in="SourceAlpha" type="matrix" values="0 0 0 0 0 0 0 0 0 0 0 0 0 0 0 0 0 0 127 0" result="hardAlpha"/>
<feOffset/>
<feGaussianBlur stdDeviation="50"/>
<feComposite in2="hardAlpha" operator="arithmetic" k2="-1" k3="1"/>
<feColorMatrix type="matrix" values="0 0 0 0 0 0 0 0 0 0 0 0 0 0 0 0 0 0 1 0"/>
<feBlend mode="normal" in2="effect1_innerShadow_864_57593" result="effect2_innerShadow_864_57593"/>
</filter>
</defs>
</svg>
