<svg width="1280" height="1920" viewBox="0 0 1280 1920" fill="none" xmlns="http://www.w3.org/2000/svg">
<path d="M1225 1811C1155.43 1941.88 933.251 1850 661.001 1850C388.752 1850 185.876 1962.5 64.0015 1853C-57.873 1743.5 86.0001 1463.25 86.0001 1329C86.0001 1194.75 7.87624 1085.5 21.0017 898C34.1272 710.502 86 655.25 86 491C86 359.375 7.24796 200.509 125.001 93.9991C242.755 -12.5112 514.876 63.9991 726.001 63.9991C937.126 63.9991 1136.5 -39.8737 1225 94.0004C1313.5 227.874 1206 446.25 1206 582C1206 717.75 1251 767 1251 917C1251 1067 1206.75 1174.12 1203 1353C1199.25 1531.88 1294.57 1680.12 1225 1811Z" fill="black"/>
</svg>
