<svg width="1280" height="1920" viewBox="0 0 1280 1920" fill="none" xmlns="http://www.w3.org/2000/svg">
<g filter="url(#filter0_i_894_57627)">
<path d="M1225 1811C1155.43 1941.88 933.25 1850 661 1850C388.75 1850 193.874 1962.5 71.9997 1853C-49.8747 1743.5 85.9984 1463.25 85.9984 1329C85.9984 1194.75 7.87451 1085.5 21 898C34.1255 710.502 85.9983 655.25 85.9983 491C85.9983 359.375 7.24622 200.509 125 93.9991C242.753 -12.5112 514.875 63.9991 726 63.9991C937.125 63.9991 1136.5 -39.8737 1225 94.0004C1313.5 227.874 1206 446.25 1206 582C1206 717.75 1251 767 1251 917C1251 1067 1206.75 1174.12 1203 1353C1199.25 1531.88 1294.57 1680.12 1225 1811Z" fill="black" fill-opacity="0.01"/>
</g>
<path d="M1225 1811C1155.43 1941.88 933.25 1850 661 1850C388.75 1850 193.874 1962.5 71.9997 1853C-49.8747 1743.5 85.9984 1463.25 85.9984 1329C85.9984 1194.75 7.87451 1085.5 21 898C34.1255 710.502 85.9983 655.25 85.9983 491C85.9983 359.375 7.24622 200.509 125 93.9991C242.753 -12.5112 514.875 63.9991 726 63.9991C937.125 63.9991 1136.5 -39.8737 1225 94.0004C1313.5 227.874 1206 446.25 1206 582C1206 717.75 1251 767 1251 917C1251 1067 1206.75 1174.12 1203 1353C1199.25 1531.88 1294.57 1680.12 1225 1811Z" stroke="#F0EEFF" stroke-width="20"/>
<defs>
<filter id="filter0_i_894_57627" x="9.51367" y="15.5898" width="1260.44" height="1895.32" filterUnits="userSpaceOnUse" color-interpolation-filters="sRGB">
<feFlood flood-opacity="0" result="BackgroundImageFix"/>
<feBlend mode="normal" in="SourceGraphic" in2="BackgroundImageFix" result="shape"/>
<feColorMatrix in="SourceAlpha" type="matrix" values="0 0 0 0 0 0 0 0 0 0 0 0 0 0 0 0 0 0 127 0" result="hardAlpha"/>
<feOffset/>
<feGaussianBlur stdDeviation="83.3333"/>
<feComposite in2="hardAlpha" operator="arithmetic" k2="-1" k3="1"/>
<feColorMatrix type="matrix" values="0 0 0 0 0 0 0 0 0 0 0 0 0 0 0 0 0 0 1 0"/>
<feBlend mode="normal" in2="shape" result="effect1_innerShadow_894_57627"/>
</filter>
</defs>
</svg>
