<svg width="1280" height="1920" viewBox="0 0 1280 1920" fill="none" xmlns="http://www.w3.org/2000/svg">
<g filter="url(#filter0_ii_894_57629)">
<path d="M67 1793C136.596 1923.93 366.643 1844 639 1844C911.356 1844 1077.08 1921.54 1199 1812C1320.92 1702.46 1221 1486.98 1221 1329C1221 1171.02 1274.13 1031.57 1261 844C1247.87 656.428 1213 655.315 1213 491C1213 359.323 1312.8 174.552 1195 68.0001C1077.2 -38.5518 850.207 50.0001 639 50.0001C427.792 50.0001 168.001 -13.5 66.0011 94.0001C-35.9986 201.5 61 355.197 61 491C61 626.803 24 766.941 24 917C24 1067.06 69.2485 1174.05 73 1353C76.7515 1531.95 -2.59624 1662.07 67 1793Z" fill="black" fill-opacity="0.01"/>
</g>
<path d="M67 1793C136.596 1923.93 366.643 1844 639 1844C911.356 1844 1077.08 1921.54 1199 1812C1320.92 1702.46 1221 1486.98 1221 1329C1221 1171.02 1274.13 1031.57 1261 844C1247.87 656.428 1213 655.315 1213 491C1213 359.323 1312.8 174.552 1195 68.0001C1077.2 -38.5518 850.207 50.0001 639 50.0001C427.792 50.0001 168.001 -13.5 66.0011 94.0001C-35.9986 201.5 61 355.197 61 491C61 626.803 24 766.941 24 917C24 1067.06 69.2485 1174.05 73 1353C76.7515 1531.95 -2.59624 1662.07 67 1793Z" stroke="#F0EEFF" stroke-width="16"/>
<defs>
<filter id="filter0_ii_894_57629" x="11.3379" y="7.47656" width="1259.75" height="1871.16" filterUnits="userSpaceOnUse" color-interpolation-filters="sRGB">
<feFlood flood-opacity="0" result="BackgroundImageFix"/>
<feBlend mode="normal" in="SourceGraphic" in2="BackgroundImageFix" result="shape"/>
<feColorMatrix in="SourceAlpha" type="matrix" values="0 0 0 0 0 0 0 0 0 0 0 0 0 0 0 0 0 0 127 0" result="hardAlpha"/>
<feOffset/>
<feGaussianBlur stdDeviation="83.3333"/>
<feComposite in2="hardAlpha" operator="arithmetic" k2="-1" k3="1"/>
<feColorMatrix type="matrix" values="0 0 0 0 0 0 0 0 0 0 0 0 0 0 0 0 0 0 1 0"/>
<feBlend mode="normal" in2="shape" result="effect1_innerShadow_894_57629"/>
<feColorMatrix in="SourceAlpha" type="matrix" values="0 0 0 0 0 0 0 0 0 0 0 0 0 0 0 0 0 0 127 0" result="hardAlpha"/>
<feOffset/>
<feGaussianBlur stdDeviation="33.3333"/>
<feComposite in2="hardAlpha" operator="arithmetic" k2="-1" k3="1"/>
<feColorMatrix type="matrix" values="0 0 0 0 0 0 0 0 0 0 0 0 0 0 0 0 0 0 1 0"/>
<feBlend mode="normal" in2="effect1_innerShadow_894_57629" result="effect2_innerShadow_894_57629"/>
</filter>
</defs>
</svg>
