<svg
		version="1.1"
		id="Layer_1"
		xmlns="http://www.w3.org/2000/svg"
		xmlns:xlink="http://www.w3.org/1999/xlink"
		x="0px"
		y="0px"
		viewBox="0 0 825.7 825.7"
		style="enable-background:new 0 0 825.7 825.7;"
		xml:space="preserve"
	>
		<style type="text/css">
			.st0 {
				fill: #0fb251;
			}
			.st1 {
				fill: #33dd43;
			}
		</style>
		<g>
			<g>
				<g>
					<path
						class="st0"
						d="M381.6,36.9L56.5,225.7v374.9l325.1,188.3L707.5,601V226.1L381.6,36.9z M668.7,578.6L381.6,744.1L95.2,578.2
				V248L381.6,81.7l287.2,166.7V578.6z"
					/>
					<polygon
						class="st1"
						points="142.1,366.4 355.1,489.3 355.1,366.4 274.8,320.2 382,259 622.1,396.7 622.1,274.7 382,135.6 
				142.1,274.4 			"
					/>
					<polygon
						class="st1"
						points="408.8,459 488.9,505.5 382,567.2 142.1,429.4 142.1,551.2 382,690.8 622.1,551.5 622.1,459 
				409.1,336.4 			"
					/>
				</g>
			</g>
		</g>
	</svg>