<svg fill="none" height="32" viewBox="0 0 32 32" width="32" xmlns="http://www.w3.org/2000/svg" xmlns:xlink="http://www.w3.org/1999/xlink"><clipPath id="a"><path d="m0 0h32v32h-32z"/></clipPath><g clip-path="url(#a)" fill="#ad85ff"><path d="m29.1313 6.55608c-.7876-1.20887-2.3244-1.72023-3.6965-1.21126l-1.6842.62663c-.1886.07004-.468.0499-.7448-.13655-.5198-.35182-1.0658-.66392-1.6333-.93358-.3023-.14156-.4571-.37129-.4915-.57143l-.2942-1.75877c-.1208-.71867-.495-1.37153-1.0559-1.842354-.5609-.470825-1.2721-.72907046-2.0071-.72876573l-3.0528.00003961c-.7347-.00000164-1.4457.25835112-2.0063.72910112-.5606.470749-.9346 1.123369-1.0555 1.841779l-.2968 1.76158c-.0332.19901-.1876.4295-.489.57168-.5671.27058-1.11299.58298-1.63296.93457-.27432.18542-.55349.20497-.74313.13538l-1.68824-.62741c-.68805-.25546-1.44522-.26071-2.1368-.0148-.69159.24591-1.27275.72704-1.64012 1.35778l-1.52642 2.62069c-.36738.63089-.497039 1.37051-.365901 2.08731.131131.7168.514561 1.3642 1.082041 1.827l1.39114 1.1347c.15684.1282.27869.3768.25492.7068-.04856.619-.05006 1.2433-.00188 1.8676.02448.3308-.0976.5807-.25595.7093l-1.38814 1.1317c-1.130257.923-1.452117 2.4972-.79076 3.7774l8.79989-5.0362c-.25982-1.0125-.25772-2.0832.01991-3.1101.4261-1.5765 1.4666-2.9207 2.8925-3.7367 1.4258-.81606 3.1204-1.0372 4.7107-.6148 1.036.2752 1.9725.8088 2.7271 1.538z"/><path d="m11.6661 20.4072c.7542.728 1.6898 1.2607 2.7246 1.5356 1.5904.4224 3.2849.2013 4.7108-.6148s2.4663-2.1602 2.8925-3.7367c.2773-1.0258.2797-2.0953.0207-3.1068l8.8006-5.03665c.3089.59915.4118 1.28365.2903 1.94855-.1309.7169-.5143 1.3644-1.0818 1.8274l-1.3887 1.134c-.157.1277-.2799.3762-.2531.7076.0471.6217.0465 1.246-.0019 1.8676-.0252.3309.0966.5795.2527.7062l1.3919 1.1361c.5675.4629.9509 1.1103 1.0821 1.827.1311.7168.0014 1.4565-.3659 2.0874l-1.5265 2.6206c-.7606 1.3032-2.3573 1.8702-3.7777 1.3416l-1.6874-.626c-.1897-.0696-.4697-.0515-.7431.1354-.5201.3515-1.0659.6639-1.633.9346-.3014.1421-.4558.3726-.489.5716l-.2968 1.7616c-.1209.7184-.4949 1.371-1.0555 1.8418-.5606.4707-1.2716.7291-2.0063.7291l-3.0536-.0014c-.7343 0-1.4448-.258-2.0053-.7282s-.9347-1.1222-1.0561-1.8401l-.2966-1.763c-.0336-.1987-.1884-.4284-.4901-.5722-.5651-.2679-1.11122-.5787-1.63251-.9322-.27908-.1871-.55761-.2058-.7462-.1357l-1.68425.6266c-1.37147.5088-2.90837-.0033-3.69553-1.2099z"/></g></svg>