<svg xmlns="http://www.w3.org/2000/svg" width="32" height="32" fill="none" viewBox="0 0 32 32"><g clip-path="url(#a)"><path fill="url(#b)" d="M6.4839 25.5161c-.7508.7508-.7586 1.9842.1056 2.601.2916.2082.5908.4012.8964.579.5586.325.8711.9717.7039 1.596a.9613.9613 0 0 0 .6797 1.1773l1.857.4976c.5128.1374 1.0399-.1669 1.1773-.6797l.0088-.0328c.1627-.6071.74-1.0003 1.3685-1.0003.6285 0 1.2059.3932 1.3686 1.0003l.0087.0328c.1374.5128.6645.8171 1.1773.6797l1.8571-.4976c.5128-.1374.8171-.6645.6797-1.1773l-.008-.03c-.1627-.607.1351-1.233.6793-1.5472.5447-.3145 1.2475-.2669 1.6922.1778l.0221.0221a.9612.9612 0 0 0 1.3594 0l1.3595-1.3595a.9612.9612 0 0 0 0-1.3594l-.0221-.0221c-.4447-.4447-.4923-1.1475-.1778-1.6922.3142-.5442.9402-.842 1.5472-.6793l.03.008c.5128.1374 1.0399-.1669 1.1773-.6797l.4976-1.8571c.1374-.5128-.1669-1.0399-.6797-1.1773l-.0327-.0088c-.6072-.1626-1.0004-.74-1.0004-1.3685 0-.6285.3932-1.2059 1.0003-1.3686l.0328-.0087c.5128-.1374.8171-.6645.6797-1.1773l-.4976-1.8571c-.1374-.5128-.6645-.8171-1.1773-.6797-.6243.1673-1.271-.1452-1.596-.7039a11.5565 11.5565 0 0 0-1.8205-2.3614L6.4838 25.5161Z"/><path fill="url(#c)" d="M6.4839 25.5161c-.7508.7508-.7586 1.9842.1056 2.601.2916.2082.5908.4012.8964.579.5586.325.8711.9717.7039 1.596a.9613.9613 0 0 0 .6797 1.1773l1.857.4976c.5128.1374 1.0399-.1669 1.1773-.6797l.0088-.0328c.1627-.6071.74-1.0003 1.3685-1.0003.6285 0 1.2059.3932 1.3686 1.0003l.0087.0328c.1374.5128.6645.8171 1.1773.6797l1.8571-.4976c.5128-.1374.8171-.6645.6797-1.1773l-.008-.03c-.1627-.607.1351-1.233.6793-1.5472.5447-.3145 1.2475-.2669 1.6922.1778l.0221.0221a.9612.9612 0 0 0 1.3594 0l1.3595-1.3595a.9612.9612 0 0 0 0-1.3594l-.0221-.0221c-.4447-.4447-.4923-1.1475-.1778-1.6922.3142-.5442.9402-.842 1.5472-.6793l.03.008c.5128.1374 1.0399-.1669 1.1773-.6797l.4976-1.8571c.1374-.5128-.1669-1.0399-.6797-1.1773l-.0327-.0088c-.6072-.1626-1.0004-.74-1.0004-1.3685 0-.6285.3932-1.2059 1.0003-1.3686l.0328-.0087c.5128-.1374.8171-.6645.6797-1.1773l-.4976-1.8571c-.1374-.5128-.6645-.8171-1.1773-.6797-.6243.1673-1.271-.1452-1.596-.7039a11.5565 11.5565 0 0 0-1.8205-2.3614L6.4838 25.5161Z"/><path fill="url(#d)" d="M8.523 5.804a.9613.9613 0 0 1 0-1.3594l1.3595-1.3594a.9612.9612 0 0 1 1.3594 0l.022.022c.4448.4447 1.1476.4923 1.6923.1778.5442-.3142.842-.9402.6793-1.5472l-.008-.0299c-.1374-.5128.1669-1.04.6797-1.1773L16.1643.033a.9613.9613 0 0 1 1.1773.6797l.0087.0327c.1627.6071.7401 1.0004 1.3686 1.0004.6285 0 1.2059-.3933 1.3686-1.0004l.0087-.0327A.9613.9613 0 0 1 21.2735.033l1.8571.4976c.5128.1374.8171.6645.6797 1.1773-.1673.6243.1452 1.271.7039 1.596a11.47 11.47 0 0 1 .8963.579c.8642.6168.8564 1.8501.1056 2.601L10.5622 21.4377a11.5522 11.5522 0 0 1-1.8205-2.3615c-.325-.5586-.9717-.8711-1.596-.7038-.5128.1374-1.0399-.167-1.1773-.6798l-.4976-1.857a.9613.9613 0 0 1 .6797-1.1773l.0327-.0088c.6071-.1627 1.0004-.74 1.0004-1.3685 0-.6285-.3933-1.2059-1.0004-1.3686l-.0327-.0087a.9613.9613 0 0 1-.6797-1.1773l.4976-1.857a.9613.9613 0 0 1 1.1773-.6798l.03.008c.607.1626 1.233-.1351 1.5472-.6794.3144-.5446.2669-1.2475-.1779-1.6922l-.022-.022Z"/><path fill="url(#e)" fill-rule="evenodd" d="M8.9293 5.3978a.9613.9613 0 0 1 0-1.3594l-.4063.4062a.9613.9613 0 0 0 0 1.3595l.022.022c.4448.4447.4923 1.1475.1779 1.6922a1.5026 1.5026 0 0 1-.0532.0854 1.4793 1.4793 0 0 0 .4594-.4916c.3145-.5447.2669-1.2475-.1778-1.6922l-.022-.022ZM6.451 8.2666a.9587.9587 0 0 0-.4827.6028l-.4976 1.857c-.1374.5128.167 1.0399.6797 1.1774l.0327.0087c.6071.1627 1.0004.74 1.0004 1.3686a1.483 1.483 0 0 1-.2353.8043c.3986-.2543.6415-.7167.6415-1.2106 0-.6285-.3932-1.2059-1.0003-1.3685l-.0327-.0088a.9613.9613 0 0 1-.6798-1.1773l.4976-1.857a.9647.9647 0 0 1 .0765-.1966Zm-.4972 6.4682c-.3906.2037-.6019.6576-.4831 1.1009l.4976 1.857c.1374.5128.6645.8172 1.1773.6797.6243-.1672 1.271.1452 1.596.7039a11.5516 11.5516 0 0 0 1.8205 2.3614l.4062-.4062a11.5549 11.5549 0 0 1-1.8205-2.3614c-.325-.5587-.9717-.8712-1.596-.7039-.5128.1374-1.0399-.1669-1.1773-.6797l-.4976-1.8571a.9577.9577 0 0 1 .077-.6946Zm.9296 10.3817-.3996.3996c-.7508.7508-.7586 1.9841.1056 2.601.2916.2082.5908.4012.8964.579.5586.3249.8711.9717.7038 1.596a.9613.9613 0 0 0 .6798 1.1773l1.857.4976c.4433.1188.8972-.0925 1.1009-.4832a.9571.9571 0 0 1-.6947.0769l-1.857-.4976a.9613.9613 0 0 1-.6797-1.1773c.1672-.6243-.1452-1.271-.7039-1.596a11.4729 11.4729 0 0 1-.8964-.5789c-.8617-.6151-.8565-1.843-.1122-2.5944Zm5.5933 5.373a1.4827 1.4827 0 0 1 .8043-.2353c.6285 0 1.2059.3932 1.3686 1.0003l.0087.0328c.1374.5128.6645.8171 1.1773.6797l1.8571-.4976a.9586.9586 0 0 0 .6028-.4827.9598.9598 0 0 1-.1966.0764l-1.857.4976c-.5128.1374-1.0399-.1669-1.1773-.6797l-.0088-.0327c-.1627-.6071-.74-1.0004-1.3685-1.0004-.494 0-.9563.2429-1.2106.6416Zm6.4816-1.7214a1.5238 1.5238 0 0 1 .0854-.0532c.5447-.3145 1.2475-.2669 1.6922.1778l.0221.022a.9612.9612 0 0 0 1.3594 0l.4062-.4062a.9612.9612 0 0 1-1.3594 0l-.022-.022c-.4448-.4448-1.1476-.4923-1.6922-.1779a1.4796 1.4796 0 0 0-.4917.4595Zm4.7781-4.778c.3149-.2099.7051-.2904 1.0878-.1878l.03.008c.4433.1188.8972-.0925 1.1009-.4832a.9577.9577 0 0 1-.6947.0769l-.0299-.008c-.5745-.1539-1.1661.1046-1.4941.5941Zm1.7214-6.4818a1.2848 1.2848 0 0 1 .3588-.158l.0328-.0087a.9586.9586 0 0 0 .6028-.4827.9598.9598 0 0 1-.1966.0764l-.0327.0088c-.3259.0873-.5902.2941-.7651.5642ZM20.5789.1099a.9587.9587 0 0 0-.4827.6028l-.0087.0327a1.2852 1.2852 0 0 1-.158.3588c.2701-.1749.4769-.4392.5642-.765l.0088-.0327a.9607.9607 0 0 1 .0764-.1966Zm-6.4683.497c-.3906.2038-.6019.6577-.4831 1.101l.008.0299c.1026.3827.0221.773-.1878 1.0878.4895-.328.748-.9196.5941-1.494l-.0081-.03a.958.958 0 0 1 .0769-.6946Z" clip-rule="evenodd"/><path fill="url(#f)" fill-rule="evenodd" d="M9.4765 3.4911c.3755-.375.9839-.375 1.3592.0003l.022.022c.4447.4448 1.1475.4924 1.6922.1779a1.4794 1.4794 0 0 0 .4916-.4594 1.5192 1.5192 0 0 1-.0853.0532c-.5447.3144-1.2475.2668-1.6923-.1779l-.022-.022a.9612.9612 0 0 0-1.3594 0l-.406.406Zm4.2279-2.4779a.9638.9638 0 0 1 .1966-.0764l1.857-.4976c.5128-.1374 1.0399.167 1.1774.6798l.0087.0326c.1627.6071.7401 1.0004 1.3686 1.0004.4939 0 .9563-.2429 1.2106-.6415a1.4829 1.4829 0 0 1-.8044.2353c-.6285 0-1.2059-.3933-1.3685-1.0004l-.0088-.0327A.9613.9613 0 0 0 16.1643.033l-1.8571.4976a.9586.9586 0 0 0-.6028.4826Zm6.4683-.497a.9577.9577 0 0 1 .6946-.077l1.8571.4976c.5128.1374.8171.6646.6797 1.1774-.1673.6242.1452 1.271.7038 1.596.3056.1777.6047.3707.8964.5788.8642.617.8564 1.8502.1056 2.601l.4062-.4062c.7508-.7508.7586-1.9841-.1056-2.601a11.47 11.47 0 0 0-.8963-.5789c-.5587-.325-.8712-.9717-.7039-1.596.1374-.5128-.1669-1.0399-.6797-1.1773L21.2736.033c-.4433-.1188-.8972.0925-1.1009.4831Zm1.2651 10.046-.4062.4062a11.5504 11.5504 0 0 1 1.8204 2.3615c.325.5586.9718.8711 1.5961.7038.5128-.1374 1.0399.1669 1.1773.6797l.4976 1.8571a.9582.9582 0 0 1-.0769.6947c.3906-.2038.6019-.6577.4831-1.1009l-.4976-1.8571c-.1374-.5128-.6645-.8171-1.1773-.6797-.6243.1673-1.271-.1452-1.596-.7039a11.5565 11.5565 0 0 0-1.8205-2.3614Zm3.6139 7.3523c-.3987.2543-.6415.7167-.6415 1.2106 0 .6285.3932 1.2059 1.0003 1.3686l.0328.0087c.5128.1374.8171.6646.6797 1.1774l-.4976 1.857a.9714.9714 0 0 1-.0764.1966.9588.9588 0 0 0 .4826-.6028l.4976-1.8571c.1374-.5128-.1669-1.0399-.6797-1.1773l-.0327-.0088c-.6071-.1626-1.0004-.74-1.0004-1.3685 0-.2911.0844-.5713.2353-.8044Zm-1.7214 6.4818a1.478 1.478 0 0 0-.4594.4916c-.3145.5446-.2669 1.2474.1778 1.6922l.022.022a.9612.9612 0 0 1 0 1.3594l.4063-.4062a.9612.9612 0 0 0 0-1.3594l-.0221-.0221c-.4447-.4447-.4923-1.1475-.1778-1.6922a1.4857 1.4857 0 0 1 .0532-.0853Zm-4.778 4.778c-.4895.3281-.748.9196-.594 1.4941l.008.0299a.9582.9582 0 0 1-.0769.6947c.3906-.2038.6019-.6577.4831-1.1009l-.008-.03c-.1026-.3827-.0221-.7729.1878-1.0878Zm-6.4817 1.7214c-.2701.1749-.4769.4392-.5642.765l-.0088.0328a.9655.9655 0 0 1-.0764.1966.9588.9588 0 0 0 .4826-.6028l.0088-.0328c.0348-.13.0887-.2502.158-.3588ZM5.5477 15.141a.9724.9724 0 0 1 .1966-.0764l.0327-.0087c.3259-.0874.5902-.2942.765-.5643a1.2823 1.2823 0 0 1-.3587.158l-.0328.0088a.9589.9589 0 0 0-.6028.4826Zm.4971-6.4682a.9578.9578 0 0 1 .6947-.0769l.0299.008c.5745.154 1.166-.1045 1.494-.594-.3148.2099-.705.2903-1.0878.1878l-.0299-.008c-.4432-.1188-.8971.0925-1.1009.4831Z" clip-rule="evenodd"/></g><defs><linearGradient id="b" x1="21.5192" x2="5.1775" y1="10.713" y2="26.574" gradientUnits="userSpaceOnUse"><stop stop-color="#9866FF"/><stop offset="1" stop-color="#C3A6FF"/></linearGradient><linearGradient id="c" x1="15.5938" x2="18.0312" y1="14.2183" y2="17.4682" gradientUnits="userSpaceOnUse"><stop stop-color="#0F0F12" stop-opacity=".1"/><stop offset="1" stop-color="#0F0F12" stop-opacity="0"/></linearGradient><linearGradient id="d" x1="10.6573" x2="26.7171" y1="21.3436" y2="5.2837" gradientUnits="userSpaceOnUse"><stop stop-color="#9866FF"/><stop offset="1" stop-color="#C3A6FF"/></linearGradient><linearGradient id="e" x1="6.6565" x2="17.2187" y1="28.1929" y2="16.8182" gradientUnits="userSpaceOnUse"><stop stop-color="#9C6CFF"/><stop offset="1" stop-color="#925CFF"/></linearGradient><linearGradient id="f" x1="16.3797" x2="26.9672" y1="14.7628" y2="7.7229" gradientUnits="userSpaceOnUse"><stop stop-color="#AD85FF"/><stop offset="1" stop-color="#CEB7FF"/></linearGradient><clipPath id="a"><path fill="#fff" d="M0 0h32v32H0z"/></clipPath></defs></svg>