<svg fill="none" height="32" viewBox="0 0 32 32" width="32" xmlns="http://www.w3.org/2000/svg" xmlns:xlink="http://www.w3.org/1999/xlink"><linearGradient id="a"><stop offset="0" stop-color="#a173ff"/><stop offset="1" stop-color="#c0a1ff"/></linearGradient><linearGradient id="b" gradientUnits="userSpaceOnUse" x1="21.5214" x2="5.17969" xlink:href="#a" y1="10.713" y2="26.574"/><linearGradient id="c" gradientUnits="userSpaceOnUse" x1="10.6595" x2="26.7193" xlink:href="#a" y1="21.3436" y2="5.28369"/><linearGradient id="d" gradientUnits="userSpaceOnUse" x1="6.65872" x2="17.2209" y1="28.1929" y2="16.8183"><stop offset="0" stop-color="#9c6cff"/><stop offset="1" stop-color="#925cff"/></linearGradient><linearGradient id="e" gradientUnits="userSpaceOnUse" x1="16.3819" x2="26.9694" y1="14.7628" y2="7.72293"><stop offset="0" stop-color="#ad85ff"/><stop offset="1" stop-color="#ceb7ff"/></linearGradient><path d="m6.48605 25.5161c-.7508.7508-.75859 1.9841.10562 2.601.29165.2082.59082.4012.8964.579.55867.3249.87115.9717.70387 1.596-.1374.5128.16692 1.0399.67973 1.1773l1.85703.4976c.5128.1374 1.0399-.1669 1.1773-.6797l.0088-.0328c.1627-.6071.74-1.0003 1.3685-1.0003s1.2059.3932 1.3686 1.0003l.0087.0327c.1374.5129.6645.8172 1.1773.6798l1.8571-.4976c.5128-.1374.8171-.6645.6797-1.1773l-.008-.03c-.1627-.607.1351-1.233.6793-1.5472.5447-.3145 1.2475-.2669 1.6922.1778l.0221.022c.3754.3754.984.3754 1.3594 0l1.3595-1.3594c.3754-.3754.3754-.9841 0-1.3595l-.0221-.022c-.4447-.4447-.4923-1.1475-.1778-1.6922.3142-.5442.9402-.842 1.5472-.6793l.03.008c.5128.1374 1.0399-.1669 1.1773-.6797l.4976-1.8571c.1374-.5128-.1669-1.0399-.6797-1.1773l-.0328-.0088c-.6071-.1626-1.0003-.74-1.0003-1.3685s.3932-1.2059 1.0003-1.3686l.0328-.0087c.5128-.1374.8171-.6645.6797-1.1774l-.4976-1.857c-.1374-.5128-.6645-.8171-1.1773-.6797-.6243.1673-1.271-.1452-1.596-.7039-.4909-.8438-1.0977-1.6386-1.8205-2.3614z" fill="#000"/><path d="m6.48605 25.5161c-.7508.7508-.75859 1.9841.10562 2.601.29165.2082.59082.4012.8964.579.55867.3249.87115.9717.70387 1.596-.1374.5128.16692 1.0399.67973 1.1773l1.85703.4976c.5128.1374 1.0399-.1669 1.1773-.6797l.0088-.0328c.1627-.6071.74-1.0003 1.3685-1.0003s1.2059.3932 1.3686 1.0003l.0087.0327c.1374.5129.6645.8172 1.1773.6798l1.8571-.4976c.5128-.1374.8171-.6645.6797-1.1773l-.008-.03c-.1627-.607.1351-1.233.6793-1.5472.5447-.3145 1.2475-.2669 1.6922.1778l.0221.022c.3754.3754.984.3754 1.3594 0l1.3595-1.3594c.3754-.3754.3754-.9841 0-1.3595l-.0221-.022c-.4447-.4447-.4923-1.1475-.1778-1.6922.3142-.5442.9402-.842 1.5472-.6793l.03.008c.5128.1374 1.0399-.1669 1.1773-.6797l.4976-1.8571c.1374-.5128-.1669-1.0399-.6797-1.1773l-.0328-.0088c-.6071-.1626-1.0003-.74-1.0003-1.3685s.3932-1.2059 1.0003-1.3686l.0328-.0087c.5128-.1374.8171-.6645.6797-1.1774l-.4976-1.857c-.1374-.5128-.6645-.8171-1.1773-.6797-.6243.1673-1.271-.1452-1.596-.7039-.4909-.8438-1.0977-1.6386-1.8205-2.3614z" fill="url(#b)"/><path d="m8.52521 5.80409c-.3754-.3754-.3754-.98404 0-1.35944l1.35945-1.35945c.37544-.37541.98404-.3754 1.35944 0l.022.02201c.4448.44473 1.1476.4923 1.6922.17784.5443-.31421.8421-.94024.6794-1.54726l-.008-.02989c-.1374-.51281.1669-1.039908.6797-1.177315l1.8571-.4975918c.5128-.1374062 1.0399.1669168 1.1773.6797238l.0087.032684c.1627.607109.7401 1.000359 1.3686 1.000359s1.2059-.39325 1.3686-1.000359l.0087-.032663c.1374-.512809.6645-.817131 1.1773-.6797244l1.8571.4975924c.5128.137407.8171.664514.6797 1.177314-.1673.62428.1452 1.27101.7039 1.59599.3055.17775.6047.37072.8963.5789.8642.61689.8564 1.85021.1056 2.60101l-14.9539 14.95398c-.72281-.7228-1.32963-1.5177-1.82049-2.3615-.32498-.5586-.97172-.8711-1.596-.7038-.51281.1374-1.03991-.167-1.17732-.6798l-.49759-1.857c-.13741-.5128.16691-1.0399.67972-1.1773l.03272-.0088c.60709-.1627 1.00034-.74 1.00034-1.3685-.00001-.6285-.39325-1.2059-1.00034-1.3686l-.03271-.0087c-.5128-.1374-.81713-.6645-.67972-1.1773l.49759-1.85709c.13741-.51281.66451-.81713 1.17732-.67972l.02989.00801c.60702.16264 1.23305-.13513 1.54726-.67937.31446-.54468.26689-1.24749-.17784-1.69222z" fill="#000"/><path d="m8.52521 5.80409c-.3754-.3754-.3754-.98404 0-1.35944l1.35945-1.35945c.37544-.37541.98404-.3754 1.35944 0l.022.02201c.4448.44473 1.1476.4923 1.6922.17784.5443-.31421.8421-.94024.6794-1.54726l-.008-.02989c-.1374-.51281.1669-1.039908.6797-1.177315l1.8571-.4975918c.5128-.1374062 1.0399.1669168 1.1773.6797238l.0087.032684c.1627.607109.7401 1.000359 1.3686 1.000359s1.2059-.39325 1.3686-1.000359l.0087-.032663c.1374-.512809.6645-.817131 1.1773-.6797244l1.8571.4975924c.5128.137407.8171.664514.6797 1.177314-.1673.62428.1452 1.27101.7039 1.59599.3055.17775.6047.37072.8963.5789.8642.61689.8564 1.85021.1056 2.60101l-14.9539 14.95398c-.72281-.7228-1.32963-1.5177-1.82049-2.3615-.32498-.5586-.97172-.8711-1.596-.7038-.51281.1374-1.03991-.167-1.17732-.6798l-.49759-1.857c-.13741-.5128.16691-1.0399.67972-1.1773l.03272-.0088c.60709-.1627 1.00034-.74 1.00034-1.3685-.00001-.6285-.39325-1.2059-1.00034-1.3686l-.03271-.0087c-.5128-.1374-.81713-.6645-.67972-1.1773l.49759-1.85709c.13741-.51281.66451-.81713 1.17732-.67972l.02989.00801c.60702.16264 1.23305-.13513 1.54726-.67937.31446-.54468.26689-1.24749-.17784-1.69222z" fill="url(#c)"/><g clip-rule="evenodd" fill-rule="evenodd"><path d="m8.92815 4.0417-.40294.40293c-.3754.3754-.3754.98405 0 1.35945l.02202.02202c.44473.44472.4923 1.14754.17784 1.69222-.01684.02916-.03457.05762-.05315.08533.18457-.123.34326-.29046.45936-.49157.31447-.54468.2669-1.24749-.17783-1.69222l-.02202-.02201c-.3743-.37431-.37539-.98049-.00328-1.35615zm-2.47491 4.22488c-.22967.12032-.41024.33263-.48264.60282l-.49759 1.857c-.13741.5128.16692 1.04.67972 1.1774l.03271.0087c.60709.1627 1.00033.74 1.00034 1.3686 0 .2911-.08438.5712-.23529.8043.39865-.2543.6415-.7167.6415-1.2106 0-.6285-.39324-1.2058-1.00034-1.3685l-.0327-.0088c-.5128-.1374-.81713-.6645-.67972-1.1773l.49759-1.85704c.01864-.06955.04445-.13527.07642-.19658zm-.49713 6.46822c-.39064.2037-.60188.6576-.48311 1.1009l.49759 1.857c.13741.5128.66451.8172 1.17732.6797.62428-.1672 1.27102.1452 1.596.7039.49086.8438 1.09768 1.6386 1.82049 2.3614l-3.6721 3.6722-.40625.4062c-.7508.7508-.75859 1.9841.10562 2.601.29165.2082.59081.4012.8964.5789.55867.325.87115.9718.70387 1.5961-.13741.5128.16691 1.0399.67972 1.1773l1.85704.4976c.4432.1188.8972-.0925 1.1009-.4831-.2062.108-.452.1419-.6946.0769l-1.85709-.4976c-.51281-.1374-.81713-.6645-.67972-1.1774.16727-.6243-.14521-1.271-.70387-1.596-.30559-.1778-.60476-.3707-.89641-.5789-.8642-.6169-.85642-1.8502-.10561-2.601l4.0784-4.0784h-.0001c-.7228-.7228-1.32962-1.5176-1.82047-2.3614-.32498-.5587-.97172-.8712-1.59601-.7039-.5128.1374-1.03991-.1669-1.17731-.6797l-.4976-1.8571c-.065-.2426-.03114-.4884.0769-.6946zm6.52289 15.7546c.2331-.1509.5132-.2352.8043-.2352.6285 0 1.2059.3932 1.3685 1.0003l.0088.0327c.1374.5129.6645.8172 1.1773.6798l1.8571-.4976c.2702-.0724.4825-.253.6028-.4827-.0613.032-.127.0578-.1966.0764l-1.857.4976c-.5128.1374-1.0399-.1669-1.1773-.6797l-.0088-.0327c-.1627-.6071-.74-1.0004-1.3685-1.0004-.494 0-.9563.2429-1.2106.6415zm6.4817-1.7214c.0277-.0186.0562-.0363.0853-.0531.5447-.3145 1.2475-.2669 1.6922.1778l.0221.022c.3754.3754.984.3754 1.3594 0l.4032-.4032c-.3756.3724-.982.3714-1.3564-.003l-.022-.022c-.4447-.4448-1.1475-.4923-1.6922-.1779-.2011.1161-.3686.2748-.4916.4594zm4.778-4.778c.3149-.2098.7052-.2903 1.0878-.1877l.03.008c.4432.1187.8971-.0925 1.1009-.4831-.2063.108-.4521.1418-.6947.0768l-.0299-.008c-.5745-.1539-1.166.1045-1.4941.594zm1.7214-6.4817c.1087-.0693.2289-.1231.3588-.158l.0328-.0087c.2701-.0724.4825-.253.6028-.4827-.0613.032-.127.0578-.1966.0764l-.0327.0088c-.3259.0873-.5902.2941-.7651.5642zm-12.0102-14.68268c.2099-.3149.2904-.70515.1878-1.08784l-.008-.02989c-.1188-.44324.0925-.897156.4831-1.100886-.108.20623-.1419.452036-.0769.694656l.008.02988c.154.57447-.1045 1.16597-.594 1.49408zm6.4818-1.72143c.2701-.1749.4769-.439159.5642-.765036l.0087-.032663c.0187-.069557.0445-.135278.0765-.196582-.2297.120322-.4103.332632-.4827.602816l-.0087.032663c-.0349.129992-.0887.250179-.158.358802z" fill="#000"/><path d="m8.92815 4.0417-.40294.40293c-.3754.3754-.3754.98405 0 1.35945l.02202.02202c.44473.44472.4923 1.14754.17784 1.69222-.01684.02916-.03457.05762-.05315.08533.18457-.123.34326-.29046.45936-.49157.31447-.54468.2669-1.24749-.17783-1.69222l-.02202-.02201c-.3743-.37431-.37539-.98049-.00328-1.35615zm-2.47491 4.22488c-.22967.12032-.41024.33263-.48264.60282l-.49759 1.857c-.13741.5128.16692 1.04.67972 1.1774l.03271.0087c.60709.1627 1.00033.74 1.00034 1.3686 0 .2911-.08438.5712-.23529.8043.39865-.2543.6415-.7167.6415-1.2106 0-.6285-.39324-1.2058-1.00034-1.3685l-.0327-.0088c-.5128-.1374-.81713-.6645-.67972-1.1773l.49759-1.85704c.01864-.06955.04445-.13527.07642-.19658zm-.49713 6.46822c-.39064.2037-.60188.6576-.48311 1.1009l.49759 1.857c.13741.5128.66451.8172 1.17732.6797.62428-.1672 1.27102.1452 1.596.7039.49086.8438 1.09768 1.6386 1.82049 2.3614l-3.6721 3.6722-.40625.4062c-.7508.7508-.75859 1.9841.10562 2.601.29165.2082.59081.4012.8964.5789.55867.325.87115.9718.70387 1.5961-.13741.5128.16691 1.0399.67972 1.1773l1.85704.4976c.4432.1188.8972-.0925 1.1009-.4831-.2062.108-.452.1419-.6946.0769l-1.85709-.4976c-.51281-.1374-.81713-.6645-.67972-1.1774.16727-.6243-.14521-1.271-.70387-1.596-.30559-.1778-.60476-.3707-.89641-.5789-.8642-.6169-.85642-1.8502-.10561-2.601l4.0784-4.0784h-.0001c-.7228-.7228-1.32962-1.5176-1.82047-2.3614-.32498-.5587-.97172-.8712-1.59601-.7039-.5128.1374-1.03991-.1669-1.17731-.6797l-.4976-1.8571c-.065-.2426-.03114-.4884.0769-.6946zm6.52289 15.7546c.2331-.1509.5132-.2352.8043-.2352.6285 0 1.2059.3932 1.3685 1.0003l.0088.0327c.1374.5129.6645.8172 1.1773.6798l1.8571-.4976c.2702-.0724.4825-.253.6028-.4827-.0613.032-.127.0578-.1966.0764l-1.857.4976c-.5128.1374-1.0399-.1669-1.1773-.6797l-.0088-.0327c-.1627-.6071-.74-1.0004-1.3685-1.0004-.494 0-.9563.2429-1.2106.6415zm6.4817-1.7214c.0277-.0186.0562-.0363.0853-.0531.5447-.3145 1.2475-.2669 1.6922.1778l.0221.022c.3754.3754.984.3754 1.3594 0l.4032-.4032c-.3756.3724-.982.3714-1.3564-.003l-.022-.022c-.4447-.4448-1.1475-.4923-1.6922-.1779-.2011.1161-.3686.2748-.4916.4594zm4.778-4.778c.3149-.2098.7052-.2903 1.0878-.1877l.03.008c.4432.1187.8971-.0925 1.1009-.4831-.2063.108-.4521.1418-.6947.0768l-.0299-.008c-.5745-.1539-1.166.1045-1.4941.594zm1.7214-6.4817c.1087-.0693.2289-.1231.3588-.158l.0328-.0087c.2701-.0724.4825-.253.6028-.4827-.0613.032-.127.0578-.1966.0764l-.0327.0088c-.3259.0873-.5902.2941-.7651.5642zm-12.0102-14.68268c.2099-.3149.2904-.70515.1878-1.08784l-.008-.02989c-.1188-.44324.0925-.897156.4831-1.100886-.108.20623-.1419.452036-.0769.694656l.008.02988c.154.57447-.1045 1.16597-.594 1.49408zm6.4818-1.72143c.2701-.1749.4769-.439159.5642-.765036l.0087-.032663c.0187-.069557.0445-.135278.0765-.196582-.2297.120322-.4103.332632-.4827.602816l-.0087.032663c-.0349.129992-.0887.250179-.158.358802z" fill="url(#d)"/><path d="m8.26564 8.00994c-.3149.20984-.70515.2903-1.08783.18775l-.02989-.008c-.44324-.11877-.89717.09248-1.10089.48312.20623-.10803.45203-.1419.69464-.07689l.02989.00801c.57447.15393 1.16597-.10452 1.49408-.59399zm-1.72143 6.48176c-.10861.0692-.22879.1231-.35878.1579l-.03271.0088c-.27019.0724-.4825.253-.60282.4826.0613-.0319.12701-.0578.19657-.0764l.03271-.0088c.32588-.0873.59014-.2941.76503-.5641zm3.61399 7.3523h-.0001l-3.67205 3.6721 3.67225-3.6722zm1.2652 10.0461c.2296-.1203.4102-.3326.4826-.6028l.0088-.0328c.0348-.13.0887-.2501.1579-.3587-.27.1748-.4768.4391-.5641.765l-.0088.0327c-.0186.0696-.0444.1353-.0764.1966zm6.4682-.4971c.3906-.2038.6019-.6577.4831-1.1009l-.008-.03c-.1026-.3827-.0221-.7729.1877-1.0878-.4894.3281-.7479.9196-.5939 1.4941l.008.0299c.065.2426.0311.4884-.0769.6947zm5.1859-3.4361.4017-.4016c.3754-.3754.3754-.9841 0-1.3595l-.0221-.022c-.4447-.4447-.4923-1.1475-.1778-1.6922.0168-.0291.0345-.0576.0531-.0853-.1845.123-.3432.2905-.4593.4916-.3145.5446-.2669 1.2474.1778 1.6922l.022.022c.3739.3739.3754.9791.0046 1.3548zm2.4737-4.2235c.2296-.1203.4102-.3327.4826-.6028l.4976-1.8571c.1374-.5128-.1669-1.0399-.6797-1.1773l-.0328-.0088c-.6071-.1626-1.0003-.74-1.0003-1.3685 0-.2911.0844-.5713.2353-.8043-.3987.2543-.6415.7166-.6415 1.2105 0 .6286.3932 1.2059 1.0003 1.3686l.0327.0088c.5129.1374.8172.6645.6798 1.1773l-.4976 1.857c-.0187.0696-.0445.1353-.0764.1966zm.4971-6.4683c.3906-.2037.6018-.6576.4831-1.1008l-.4976-1.8571c-.1374-.5128-.6645-.8171-1.1773-.6797-.6243.1673-1.2711-.1452-1.596-.7039-.4909-.8438-1.0977-1.6386-1.8205-2.3614l-.4063.4062h.0001c.7228.7228 1.3296 1.5177 1.8204 2.3615.325.5586.9718.8711 1.596.7038.5129-.1374 1.04.167 1.1774.6798l.4976 1.857c.065.2426.0311.4884-.0769.6946zm-.9362-10.37505.4062-.40623c.7508-.7508.7586-1.98412-.1056-2.60101-.2916-.20818-.5908-.40115-.8964-.5789-.5586-.32498-.8711-.97171-.7038-1.59599.1374-.5128-.1669-1.039907-.6797-1.177313l-1.8571-.4975933c-.4432-.1187665-.8971.0924783-1.1008.4831193.2062-.108031.452-.141892.6946-.076885l1.857.497593c.5128.137409.8172.664509.6798 1.177319-.1673.62427.1451 1.271.7038 1.59598.3056.17776.6047.37072.8964.5789.8642.61689.8564 1.85021.1056 2.60101zm-5.5867-5.37958c-.233.15092-.5132.23529-.8043.23529-.6285 0-1.2059-.39325-1.3686-1.000359l-.0087-.032684c-.1374-.512807-.6645-.81713-1.1773-.6797238l-1.8571.4975918c-.2702.072397-.4825.252975-.6028.482645.0613-.031968.127-.057774.1966-.07641l1.857-.497593c.5128-.137406 1.0399.166917 1.1773.679723l.0088.03269c.1627.6071.74 1.00035 1.3686 1.00035.4939 0 .9562-.24286 1.2105-.64152zm-6.4817 1.72144c-.0277.01857-.0562.0363-.0854.05314-.5446.31446-1.2474.26689-1.6922-.17784l-.022-.02201c-.3754-.3754-.984-.37541-1.35944 0l-.40292.40292c.37566-.37209.98186-.37098 1.35616.00331l.022.02202c.4447.44472 1.1475.4923 1.6922.17783.2011-.11611.3686-.2748.4916-.45937z" fill="#000"/><path d="m8.26564 8.00994c-.3149.20984-.70515.2903-1.08783.18775l-.02989-.008c-.44324-.11877-.89717.09248-1.10089.48312.20623-.10803.45203-.1419.69464-.07689l.02989.00801c.57447.15393 1.16597-.10452 1.49408-.59399zm-1.72143 6.48176c-.10861.0692-.22879.1231-.35878.1579l-.03271.0088c-.27019.0724-.4825.253-.60282.4826.0613-.0319.12701-.0578.19657-.0764l.03271-.0088c.32588-.0873.59014-.2941.76503-.5641zm3.61399 7.3523h-.0001l-3.67205 3.6721 3.67225-3.6722zm1.2652 10.0461c.2296-.1203.4102-.3326.4826-.6028l.0088-.0328c.0348-.13.0887-.2501.1579-.3587-.27.1748-.4768.4391-.5641.765l-.0088.0327c-.0186.0696-.0444.1353-.0764.1966zm6.4682-.4971c.3906-.2038.6019-.6577.4831-1.1009l-.008-.03c-.1026-.3827-.0221-.7729.1877-1.0878-.4894.3281-.7479.9196-.5939 1.4941l.008.0299c.065.2426.0311.4884-.0769.6947zm5.1859-3.4361.4017-.4016c.3754-.3754.3754-.9841 0-1.3595l-.0221-.022c-.4447-.4447-.4923-1.1475-.1778-1.6922.0168-.0291.0345-.0576.0531-.0853-.1845.123-.3432.2905-.4593.4916-.3145.5446-.2669 1.2474.1778 1.6922l.022.022c.3739.3739.3754.9791.0046 1.3548zm2.4737-4.2235c.2296-.1203.4102-.3327.4826-.6028l.4976-1.8571c.1374-.5128-.1669-1.0399-.6797-1.1773l-.0328-.0088c-.6071-.1626-1.0003-.74-1.0003-1.3685 0-.2911.0844-.5713.2353-.8043-.3987.2543-.6415.7166-.6415 1.2105 0 .6286.3932 1.2059 1.0003 1.3686l.0327.0088c.5129.1374.8172.6645.6798 1.1773l-.4976 1.857c-.0187.0696-.0445.1353-.0764.1966zm.4971-6.4683c.3906-.2037.6018-.6576.4831-1.1008l-.4976-1.8571c-.1374-.5128-.6645-.8171-1.1773-.6797-.6243.1673-1.2711-.1452-1.596-.7039-.4909-.8438-1.0977-1.6386-1.8205-2.3614l-.4063.4062h.0001c.7228.7228 1.3296 1.5177 1.8204 2.3615.325.5586.9718.8711 1.596.7038.5129-.1374 1.04.167 1.1774.6798l.4976 1.857c.065.2426.0311.4884-.0769.6946zm-.9362-10.37505.4062-.40623c.7508-.7508.7586-1.98412-.1056-2.60101-.2916-.20818-.5908-.40115-.8964-.5789-.5586-.32498-.8711-.97171-.7038-1.59599.1374-.5128-.1669-1.039907-.6797-1.177313l-1.8571-.4975933c-.4432-.1187665-.8971.0924783-1.1008.4831193.2062-.108031.452-.141892.6946-.076885l1.857.497593c.5128.137409.8172.664509.6798 1.177319-.1673.62427.1451 1.271.7038 1.59598.3056.17776.6047.37072.8964.5789.8642.61689.8564 1.85021.1056 2.60101zm-5.5867-5.37958c-.233.15092-.5132.23529-.8043.23529-.6285 0-1.2059-.39325-1.3686-1.000359l-.0087-.032684c-.1374-.512807-.6645-.81713-1.1773-.6797238l-1.8571.4975918c-.2702.072397-.4825.252975-.6028.482645.0613-.031968.127-.057774.1966-.07641l1.857-.497593c.5128-.137406 1.0399.166917 1.1773.679723l.0088.03269c.1627.6071.74 1.00035 1.3686 1.00035.4939 0 .9562-.24286 1.2105-.64152zm-6.4817 1.72144c-.0277.01857-.0562.0363-.0854.05314-.5446.31446-1.2474.26689-1.6922-.17784l-.022-.02201c-.3754-.3754-.984-.37541-1.35944 0l-.40292.40292c.37566-.37209.98186-.37098 1.35616.00331l.022.02202c.4447.44472 1.1475.4923 1.6922.17783.2011-.11611.3686-.2748.4916-.45937z" fill="url(#e)"/></g></svg>