<svg width="3072" height="3072" viewBox="0 0 3072 3072" fill="none" xmlns="http://www.w3.org/2000/svg">
<g clip-path="url(#clip0_864_57592)">
<path d="M396.001 -194C396.001 -194 49.0001 108 20.5009 360C-7.9982 612 173 764 198.5 982.5C224 1201 99.0001 1398 140 1562.5C181 1727 333.501 1752.5 426 1956.5C518.499 2160.5 411.5 2405 633.5 2609C855.5 2813 1145.5 2645 1354 2686C1562.5 2727 1639.5 2943 1865.5 2943C2091.5 2943 2119 2781 2373 2781C2627 2781 2804 3227 3241.5 2459L3272 -194H396.001Z" fill="black"/>
</g>
<defs>
<clipPath id="clip0_864_57592">
<rect width="3072" height="3072" fill="white"/>
</clipPath>
</defs>
</svg>
