<svg width="3072" height="3072" viewBox="0 0 3072 3072" fill="none" xmlns="http://www.w3.org/2000/svg">
<g clip-path="url(#clip0_864_57592)">
<path d="M396 -194C396 -194 48.9995 108 20.5004 360C-7.99879 612 158.499 726.5 158.499 982.5C158.499 1238.5 -14.1433 1429.5 25.4994 1658.5C65.1421 1887.5 212.5 1908 304.999 2112C397.498 2316 231.999 2627.5 434.499 2781C636.999 2934.5 881.5 2804 1137.5 2837C1393.5 2870 1477 3050 1703 3050C1929 3050 2005.5 2910 2365 2910C2724.5 2910 3071 3246.5 3249.5 2509.5L3272 -194H396Z" fill="black"/>
</g>
<defs>
<clipPath id="clip0_864_57592">
<rect width="3072" height="3072" fill="white"/>
</clipPath>
</defs>
</svg>
