<svg width="16" height="16" viewBox="0 0 16 16" fill="none" xmlns="http://www.w3.org/2000/svg">
<path fill-rule="evenodd" clip-rule="evenodd" d="M0 1C0.552285 1 1 0.552285 1 0C1 -0.552285 0.552285 -1 0 -1C-0.552285 -1 -1 -0.552285 -1 0C-1 0.552285 -0.552285 1 0 1ZM16 1C16.5523 1 17 0.552285 17 0C17 -0.552285 16.5523 -1 16 -1C15.4477 -1 15 -0.552285 15 0C15 0.552285 15.4477 1 16 1ZM1 16C1 16.5523 0.552285 17 0 17C-0.552285 17 -1 16.5523 -1 16C-1 15.4477 -0.552285 15 0 15C0.552285 15 1 15.4477 1 16ZM16 17C16.5523 17 17 16.5523 17 16C17 15.4477 16.5523 15 16 15C15.4477 15 15 15.4477 15 16C15 16.5523 15.4477 17 16 17Z" fill="rgba(219, 213, 231, 0.04)"/>
</svg>
