<svg width="1920" height="1536" viewBox="0 0 1920 1536" fill="none" xmlns="http://www.w3.org/2000/svg">
<g filter="url(#filter0_ii_886_57597)">
<path d="M1845 55C1957.87 115 1871.5 266.5 1863 367C1854.5 467.5 1901 526.001 1901 655C1901 783.999 1841 867.5 1841 992C1841 1116.5 1886.25 1309.25 1785 1386C1683.75 1462.75 1440 1369.5 1312 1386C1184 1402.5 1056 1512 943.002 1512C830.001 1512 662.25 1399 498 1399C366.375 1399 178.375 1472.63 103 1419C27.625 1365.37 71.5 1241 58 1124C44.5 1007 16 944.125 16 832C16 719.875 49.5 607 65 469C80.5 331 -5.84034 218 89 104C183.84 -10 399.125 115.375 536 109C672.875 102.625 794.25 22 946 22C1097.75 22 1238.37 81 1334 81C1510.76 81 1732.12 -5 1845 55Z" fill="black" fill-opacity="0.01"/>
</g>
<path d="M1845 55C1957.87 115 1871.5 266.5 1863 367C1854.5 467.5 1901 526.001 1901 655C1901 783.999 1841 867.5 1841 992C1841 1116.5 1886.25 1309.25 1785 1386C1683.75 1462.75 1440 1369.5 1312 1386C1184 1402.5 1056 1512 943.002 1512C830.001 1512 662.25 1399 498 1399C366.375 1399 178.375 1472.63 103 1419C27.625 1365.37 71.5 1241 58 1124C44.5 1007 16 944.125 16 832C16 719.875 49.5 607 65 469C80.5 331 -5.84034 218 89 104C183.84 -10 399.125 115.375 536 109C672.875 102.625 794.25 22 946 22C1097.75 22 1238.37 81 1334 81C1510.76 81 1732.12 -5 1845 55Z" stroke="#F0EEFF" stroke-width="16"/>
<defs>
<filter id="filter0_ii_886_57597" x="8" y="14" width="1902.59" height="1506" filterUnits="userSpaceOnUse" color-interpolation-filters="sRGB">
<feFlood flood-opacity="0" result="BackgroundImageFix"/>
<feBlend mode="normal" in="SourceGraphic" in2="BackgroundImageFix" result="shape"/>
<feColorMatrix in="SourceAlpha" type="matrix" values="0 0 0 0 0 0 0 0 0 0 0 0 0 0 0 0 0 0 127 0" result="hardAlpha"/>
<feOffset/>
<feGaussianBlur stdDeviation="50"/>
<feComposite in2="hardAlpha" operator="arithmetic" k2="-1" k3="1"/>
<feColorMatrix type="matrix" values="0 0 0 0 0 0 0 0 0 0 0 0 0 0 0 0 0 0 1 0"/>
<feBlend mode="normal" in2="shape" result="effect1_innerShadow_886_57597"/>
<feColorMatrix in="SourceAlpha" type="matrix" values="0 0 0 0 0 0 0 0 0 0 0 0 0 0 0 0 0 0 127 0" result="hardAlpha"/>
<feOffset/>
<feGaussianBlur stdDeviation="125"/>
<feComposite in2="hardAlpha" operator="arithmetic" k2="-1" k3="1"/>
<feColorMatrix type="matrix" values="0 0 0 0 0 0 0 0 0 0 0 0 0 0 0 0 0 0 1 0"/>
<feBlend mode="normal" in2="effect1_innerShadow_886_57597" result="effect2_innerShadow_886_57597"/>
</filter>
</defs>
</svg>
